<svg version="1.1" id="Layer_1" xmlns="http://www.w3.org/2000/svg" xmlns:xlink="http://www.w3.org/1999/xlink" x="0px" y="0px"
	 viewBox="0 0 120 120" style="enable-background:new 0 0 120 120;" xml:space="preserve">
<style type="text/css">
	.st0{fill:#EB562C;}
	.st1{fill:#FBC861;}
</style>
<path class="st0" d="M40,0L0,40v80h80l40-40V0H40z"/>
<path class="st1" d="M90.46,84.88c0.98,0,1.47-0.5,1.47-1.51V78.4c0-1.01-0.49-1.51-1.47-1.51h-6.65c-0.98,0-1.47,0.5-1.47,1.51
	v4.97c0,1.01,0.49,1.51,1.47,1.51H90.46z M91.06,73.14l1.21-19.08v-22.1h-9.94v22.1l1.3,19.08C83.63,73.14,91.06,73.14,91.06,73.14z
	 M38.44,43.84c0-1.77,0.56-3.02,1.68-3.74c1.12-0.72,2.26-1.08,3.41-1.08c0.57,0,1.15,0.08,1.73,0.25c0.58,0.17,1.11,0.44,1.6,0.83
	c0.49,0.38,0.89,0.89,1.21,1.51c0.32,0.62,0.48,1.37,0.48,2.23v15.77c0,1.78-0.55,3.04-1.64,3.78s-2.22,1.12-3.37,1.12
	s-2.29-0.37-3.41-1.12c-1.12-0.74-1.68-2-1.68-3.78V43.84H38.44z M28.42,59.6c0,3.12,0.92,5.7,2.77,7.74
	c1.84,2.04,4.26,3.45,7.26,4.21v9.22H27.73v7.85h34.3c3.11,0,5.46-0.62,7.04-1.87s2.38-3.31,2.38-6.19V61.84h5.1v-7.85h-5.1V31.74
	H61.6v46.73c0,1.54-0.72,2.3-2.16,2.3H48.29v-9.14c3.05-0.72,5.53-2.11,7.43-4.18c1.9-2.06,2.85-4.68,2.85-7.85V43.84
	c0-1.92-0.39-3.66-1.17-5.22c-0.78-1.56-1.83-2.87-3.15-3.92c-1.33-1.05-2.91-1.87-4.75-2.45c-1.84-0.58-3.83-0.87-5.96-0.87
	c-2.19,0-4.2,0.29-6.05,0.86c-1.84,0.58-3.42,1.4-4.75,2.45c-1.32,1.06-2.37,2.37-3.15,3.93c-0.78,1.56-1.17,3.3-1.17,5.22
	C28.42,43.84,28.42,59.6,28.42,59.6z"/>
</svg>
